{"asset":{"version":"2.0","generator":"THREE.GLTFExporter r175"},"scenes":[{"name":"AuxScene","nodes":[15]}],"scene":0,"nodes":[{"mesh":0},{"mesh":1},{"mesh":2},{"mesh":3},{"mesh":4},{"mesh":5},{"mesh":6},{"mesh":7},{"mesh":8},{"mesh":9},{"mesh":10},{"matrix":[0.12664656302713215,0,-0.12664656302713218,0,0,-0.17910528706090928,0,0,0.12664656302713218,0,0.12664656302713215,0,0,0,0,1],"children":[0,1,2,3,4,5,6,7,8,9,10]},{"children":[11]},{"matrix":[1,0,0,0,0,1,0,0,0,0,1,0,-35.60863244647326,13.668107712370643,35.102046224559636,1],"children":[12]},{"children":[13]},{"children":[14]}],"bufferViews":[{"buffer":0,"byteOffset":0,"byteLength":7056,"target":34962,"byteStride":12},{"buffer":0,"byteOffset":7056,"byteLength":4704,"target":34962,"byteStride":8},{"buffer":0,"byteOffset":11760,"byteLength":7056,"target":34962,"byteStride":12},{"buffer":0,"byteOffset":18816,"byteLength":4896,"target":34962,"byteStride":12},{"buffer":0,"byteOffset":23712,"byteLength":3264,"target":34962,"byteStride":8},{"buffer":0,"byteOffset":26976,"byteLength":4896,"target":34962,"byteStride":12},{"buffer":0,"byteOffset":31872,"byteLength":2736,"target":34962,"byteStride":12},{"buffer":0,"byteOffset":34608,"byteLength":1824,"target":34962,"byteStride":8},{"buffer":0,"byteOffset":36432,"byteLength":2736,"target":34962,"byteStride":12},{"buffer":0,"byteOffset":39168,"byteLength":2736,"target":34962,"byteStride":12},{"buffer":0,"byteOffset":41904,"byteLength":1824,"target":34962,"byteStride":8},{"buffer":0,"byteOffset":43728,"byteLength":2736,"target":34962,"byteStride":12},{"buffer":0,"byteOffset":46464,"byteLength":5616,"target":34962,"byteStride":12},{"buffer":0,"byteOffset":52080,"byteLength":3744,"target":34962,"byteStride":8},{"buffer":0,"byteOffset":55824,"byteLength":5616,"target":34962,"byteStride":12},{"buffer":0,"byteOffset":61440,"byteLength":2736,"target":34962,"byteStride":12},{"buffer":0,"byteOffset":64176,"byteLength":1824,"target":34962,"byteStride":8},{"buffer":0,"byteOffset":66000,"byteLength":2736,"target":34962,"byteStride":12},{"buffer":0,"byteOffset":68736,"byteLength":17136,"target":34962,"byteStride":12},{"buffer":0,"byteOffset":85872,"byteLength":11424,"target":34962,"byteStride":8},{"buffer":0,"byteOffset":97296,"byteLength":17136,"target":34962,"byteStride":12},{"buffer":0,"byteOffset":114432,"byteLength":18576,"target":34962,"byteStride":12},{"buffer":0,"byteOffset":133008,"byteLength":12384,"target":34962,"byteStride":8},{"buffer":0,"byteOffset":145392,"byteLength":18576,"target":34962,"byteStride":12},{"buffer":0,"byteOffset":163968,"byteLength":18576,"target":34962,"byteStride":12},{"buffer":0,"byteOffset":182544,"byteLength":12384,"target":34962,"byteStride":8},{"buffer":0,"byteOffset":194928,"byteLength":18576,"target":34962,"byteStride":12},{"buffer":0,"byteOffset":213504,"byteLength":64080,"target":34962,"byteStride":12},{"buffer":0,"byteOffset":277584,"byteLength":42720,"target":34962,"byteStride":8},{"buffer":0,"byteOffset":320304,"byteLength":64080,"target":34962,"byteStride":12},{"buffer":0,"byteOffset":384384,"byteLength":64080,"target":34962,"byteStride":12},{"buffer":0,"byteOffset":448464,"byteLength":42720,"target":34962,"byteStride":8},{"buffer":0,"byteOffset":491184,"byteLength":64080,"target":34962,"byteStride":12}],"buffers":[{"byteLength":555264,"uri":"data:application/octet-stream;base64,"}],"accessors":[{"bufferView":0,"componentType":5126,"count":588,"max":[108.96826171875,118.126953125,4.599999904632568],"min":[4.7000017166137695,6.631267547607422,-0.6000000238418579],"type":"VEC3"},{"bufferView":1,"componentType":5126,"count":588,"max":[118.126953125,117.82695007324219],"min":[4.7000017166137695,-3.5999999046325684],"type":"VEC2"},{"bufferView":2,"componentType":5126,"count":588,"max":[0.9999949336051941,1,1],"min":[-1,-1,-1],"type":"VEC3"},{"bufferView":3,"componentType":5126,"count":408,"max":[132.34530639648438,118.126953125,4.599999904632568],"min":[70.61587524414062,6.631267547607422,-0.6000000238418579],"type":"VEC3"},{"bufferView":4,"componentType":5126,"count":408,"max":[132.34530639648438,117.82695007324219],"min":[6.631267547607422,-3.5999999046325684],"type":"VEC2"},{"bufferView":5,"componentType":5126,"count":408,"max":[1,1,1],"min":[-0.9999949336051941,-1,-1],"type":"VEC3"},{"bufferView":6,"componentType":5126,"count":228,"max":[163.6233367919922,26.341154098510742,4.599999904632568],"min":[145.05296325683594,6.6324849128723145,-0.6000000238418579],"type":"VEC3"},{"bufferView":7,"componentType":5126,"count":228,"max":[163.6233367919922,26.041152954101562],"min":[6.6324849128723145,-3.5999999046325684],"type":"VEC2"},{"bufferView":8,"componentType":5126,"count":228,"max":[1,1,1],"min":[-1,-1,-1],"type":"VEC3"},{"bufferView":9,"componentType":5126,"count":228,"max":[163.6233367919922,118.126953125,4.599999904632568],"min":[145.05296325683594,35.06678009033203,-0.6000000238418579],"type":"VEC3"},{"bufferView":10,"componentType":5126,"count":228,"max":[163.6233367919922,117.82695007324219],"min":[35.06678009033203,-3.5999999046325684],"type":"VEC2"},{"bufferView":11,"componentType":5126,"count":228,"max":[1,1,1],"min":[-1,-1,-1],"type":"VEC3"},{"bufferView":12,"componentType":5126,"count":468,"max":[469.74261474609375,147.926513671875,4.599999904632568],"min":[404.78424072265625,33.02006912231445,-0.6000000238418579],"type":"VEC3"},{"bufferView":13,"componentType":5126,"count":468,"max":[469.74261474609375,147.62652587890625],"min":[33.02006912231445,-3.5999999046325684],"type":"VEC2"},{"bufferView":14,"componentType":5126,"count":468,"max":[0.9437808394432068,0.9999765753746033,1],"min":[-0.9402636289596558,-0.9999959468841553,-1],"type":"VEC3"},{"bufferView":15,"componentType":5126,"count":228,"max":[486.2345275878906,147.926513671875,4.599999904632568],"min":[430.93865966796875,33.02006912231445,-0.6000000238418579],"type":"VEC3"},{"bufferView":16,"componentType":5126,"count":228,"max":[486.2345275878906,147.62652587890625],"min":[33.02006912231445,-3.5999999046325684],"type":"VEC2"},{"bufferView":17,"componentType":5126,"count":228,"max":[0.9280325770378113,0.9999776482582092,1],"min":[-0.9299300312995911,-0.9999800324440002,-1],"type":"VEC3"},{"bufferView":18,"componentType":5126,"count":1428,"max":[282.365234375,118.126953125,4.599999904632568],"min":[224.66958618164062,34.49894332885742,-0.6000000238418579],"type":"VEC3"},{"bufferView":19,"componentType":5126,"count":1428,"max":[282.365234375,117.82695007324219],"min":[34.49894332885742,-3.5999999046325684],"type":"VEC2"},{"bufferView":20,"componentType":5126,"count":1428,"max":[1,1,1],"min":[-1,-1,-1],"type":"VEC3"},{"bufferView":21,"componentType":5126,"count":1548,"max":[334.79840087890625,118.126953125,4.599999904632568],"min":[293.594970703125,4.6999993324279785,-0.6000000238418579],"type":"VEC3"},{"bufferView":22,"componentType":5126,"count":1548,"max":[334.79840087890625,117.82695007324219],"min":[4.6999993324279785,-3.5999999046325684],"type":"VEC2"},{"bufferView":23,"componentType":5126,"count":1548,"max":[1,1,1],"min":[-1,-1,-1],"type":"VEC3"},{"bufferView":24,"componentType":5126,"count":1548,"max":[216.6250457763672,118.126953125,4.599999904632568],"min":[176.1027069091797,4.6999993324279785,-0.6000000238418579],"type":"VEC3"},{"bufferView":25,"componentType":5126,"count":1548,"max":[216.6250457763672,117.82695007324219],"min":[4.6999993324279785,-3.5999999046325684],"type":"VEC2"},{"bufferView":26,"componentType":5126,"count":1548,"max":[1,1,1],"min":[-1,-1,-1],"type":"VEC3"},{"bufferView":27,"componentType":5126,"count":5340,"max":[405.4317321777344,120.20555877685547,4.599999904632568],"min":[339.31817626953125,30.97336196899414,-0.6000000238418579],"type":"VEC3"},{"bufferView":28,"componentType":5126,"count":5340,"max":[405.13165283203125,119.87459564208984],"min":[41.31795120239258,-3.5999999046325684],"type":"VEC2"},{"bufferView":29,"componentType":5126,"count":5340,"max":[1,1,1],"min":[-0.9999346137046814,-1,-1],"type":"VEC3"},{"bufferView":30,"componentType":5126,"count":5340,"max":[553.630859375,121.08500671386719,4.599999904632568],"min":[487.85736083984375,33.02006912231445,-0.6000000238418579],"type":"VEC3"},{"bufferView":31,"componentType":5126,"count":5340,"max":[553.330810546875,120.78500366210938],"min":[42.58549499511719,-3.5999999046325684],"type":"VEC2"},{"bufferView":32,"componentType":5126,"count":5340,"max":[1,1,1],"min":[-0.9999104142189026,-1,-1],"type":"VEC3"}],"materials":[{"pbrMetallicRoughness":{"baseColorFactor":[0.6375968739867731,0.6653872982754769,0.7083757798856457,1],"metallicFactor":0,"roughnessFactor":0.3},"doubleSided":true,"extensions":{"KHR_materials_transmission":{"transmissionFactor":1},"KHR_materials_volume":{"thicknessFactor":0,"attenuationColor":[1,1,1]}}}],"meshes":[{"primitives":[{"mode":4,"attributes":{"POSITION":0,"TEXCOORD_0":1,"NORMAL":2},"material":0}]},{"primitives":[{"mode":4,"attributes":{"POSITION":3,"TEXCOORD_0":4,"NORMAL":5},"material":0}]},{"primitives":[{"mode":4,"attributes":{"POSITION":6,"TEXCOORD_0":7,"NORMAL":8},"material":0}]},{"primitives":[{"mode":4,"attributes":{"POSITION":9,"TEXCOORD_0":10,"NORMAL":11},"material":0}]},{"primitives":[{"mode":4,"attributes":{"POSITION":12,"TEXCOORD_0":13,"NORMAL":14},"material":0}]},{"primitives":[{"mode":4,"attributes":{"POSITION":15,"TEXCOORD_0":16,"NORMAL":17},"material":0}]},{"primitives":[{"mode":4,"attributes":{"POSITION":18,"TEXCOORD_0":19,"NORMAL":20},"material":0}]},{"primitives":[{"mode":4,"attributes":{"POSITION":21,"TEXCOORD_0":22,"NORMAL":23},"material":0}]},{"primitives":[{"mode":4,"attributes":{"POSITION":24,"TEXCOORD_0":25,"NORMAL":26},"material":0}]},{"primitives":[{"mode":4,"attributes":{"POSITION":27,"TEXCOORD_0":28,"NORMAL":29},"material":0}]},{"primitives":[{"mode":4,"attributes":{"POSITION":30,"TEXCOORD_0":31,"NORMAL":32},"material":0}]}],"extensionsUsed":["KHR_materials_transmission","KHR_materials_volume"]}